<?xml version="1.0" encoding="utf-8"?>
<!-- Generator: Adobe Illustrator 16.0.4, SVG Export Plug-In . SVG Version: 6.00 Build 0)  -->
<!DOCTYPE svg PUBLIC "-//W3C//DTD SVG 1.1//EN" "http://www.w3.org/Graphics/SVG/1.1/DTD/svg11.dtd">
<svg version="1.1" id="Layer_1" xmlns="http://www.w3.org/2000/svg" xmlns:xlink="http://www.w3.org/1999/xlink" x="0px" y="0px"
	 viewBox="0 0 48 48" enable-background="new 0 0 48 48" xml:space="preserve">
<path fill-rule="evenodd" clip-rule="evenodd" d="M4,0h40c2.209,0,4,1.791,4,4v40c0,2.209-1.791,4-4,4H4c-2.209,0-4-1.791-4-4V4
	C0,1.792,1.791,0,4,0z"/>
<path fill-rule="evenodd" clip-rule="evenodd" fill="#FFFFFF" d="M23.999,8.441c-8.994,0-16.288,7.293-16.288,16.291
	c0,7.196,4.667,13.302,11.141,15.456c0.814,0.149,1.111-0.354,1.111-0.785c0-0.387-0.014-1.411-0.021-2.771
	c-4.531,0.984-5.487-2.184-5.487-2.184c-0.741-1.882-1.809-2.383-1.809-2.383c-1.479-1.011,0.111-0.99,0.111-0.99
	c1.635,0.115,2.495,1.679,2.495,1.679c1.453,2.489,3.812,1.771,4.741,1.354c0.147-1.053,0.568-1.771,1.034-2.178
	c-3.617-0.411-7.42-1.809-7.42-8.051c0-1.778,0.635-3.232,1.677-4.371c-0.168-0.412-0.727-2.068,0.159-4.311
	c0,0,1.368-0.438,4.479,1.67c1.3-0.361,2.693-0.542,4.078-0.548c1.384,0.006,2.776,0.187,4.078,0.548
	c3.11-2.108,4.476-1.67,4.476-1.67c0.889,2.243,0.329,3.899,0.162,4.311c1.043,1.139,1.674,2.593,1.674,4.371
	c0,6.258-3.809,7.635-7.438,8.038c0.585,0.503,1.105,1.497,1.105,3.017c0,2.178-0.02,3.935-0.02,4.469
	c0,0.436,0.293,0.942,1.12,0.783c6.468-2.158,11.13-8.26,11.13-15.454C40.289,15.734,32.996,8.441,23.999,8.441z"/>
</svg>
